<svg width="230" height="158" viewBox="0 0 230 158" fill="none" xmlns="http://www.w3.org/2000/svg">
<path d="M71.6597 0.341199C71.8989 0.341065 72.1381 0.34093 72.3845 0.340791C79.5317 0.363786 85.9855 1.84786 92.4784 4.83519C92.6993 4.9344 92.9202 5.03361 93.1479 5.13582C100.972 8.67792 108.912 15.2511 113.548 22.5603C113.548 22.781 113.548 23.0018 113.548 23.2292C114.475 22.3322 115.289 21.4075 116.077 20.3865C123.125 11.5348 132.484 4.64386 143.635 1.99346C144.312 1.82621 144.976 1.63097 145.643 1.43073C157.525 -1.86781 171.191 0.825829 181.824 6.55628C192.702 12.7342 201.224 22.912 204.849 34.9345C204.971 35.3308 204.971 35.3308 205.095 35.7351C207.913 45.3906 207.194 56.1193 204.515 65.7026C204.427 66.0346 204.339 66.3665 204.249 66.7085C203.844 68.2386 203.436 69.7255 202.801 71.179C202.256 72.4324 201.718 73.6862 201.203 74.9519C196.848 85.5465 190.519 95.1148 183.111 103.828C182.962 104.005 182.813 104.182 182.659 104.364C180.508 106.919 178.298 109.407 176.02 111.85C175.199 112.731 174.398 113.628 173.6 114.53C171.159 117.251 168.579 119.881 165.79 122.246C164.97 122.962 164.178 123.703 163.385 124.448C161.539 126.182 159.674 127.857 157.696 129.44C156.935 130.052 156.182 130.671 155.433 131.298C145.719 139.421 135.31 146.503 124.25 152.656C124.015 152.787 123.781 152.918 123.539 153.053C121.207 154.351 118.838 155.558 116.411 156.669C116.091 156.821 116.091 156.821 115.764 156.977C114.242 157.652 112.845 158.019 111.207 157.673C109.806 157.107 108.508 156.387 107.194 155.645C106.813 155.435 106.433 155.224 106.04 155.008C95.3248 149.044 85.4399 141.853 75.9907 134.06C75.4687 133.631 74.9426 133.208 74.4162 132.785C72.4524 131.204 70.5834 129.549 68.7399 127.832C67.9879 127.134 67.2204 126.457 66.4459 125.785C65.0169 124.54 63.6316 123.252 62.2537 121.951C62.0056 121.717 61.7576 121.482 61.502 121.241C59.029 118.901 56.5786 116.558 54.3644 113.967C53.6342 113.136 52.8813 112.33 52.1241 111.524C50.36 109.645 48.6592 107.743 47.0486 105.729C46.2957 104.794 45.5175 103.884 44.7375 102.971C39.8705 97.137 35.6813 90.7024 31.9453 84.0966C31.8182 83.8736 31.6911 83.6505 31.5601 83.4207C26.694 74.8137 23.6792 65.7609 22.2467 56.0039C22.1825 55.5702 22.1182 55.1366 22.052 54.6897C20.585 42.2628 24.1839 29.3698 31.9035 19.5295C39.6398 10.1302 49.8592 3.16996 62.0446 1.15639C62.5002 1.07333 62.5002 1.07333 62.965 0.988598C65.866 0.490907 68.7195 0.339486 71.6597 0.341199Z" fill="#E83549"/>
<path d="M71.6597 0.341199C71.8989 0.341065 72.1381 0.34093 72.3845 0.340791C79.5317 0.363786 85.9856 1.84786 92.4784 4.83519C92.6993 4.9344 92.9202 5.03361 93.1479 5.13582C100.972 8.67792 108.912 15.2511 113.548 22.5603C113.548 22.781 113.548 23.0018 113.548 23.2292C114.475 22.3322 115.289 21.4075 116.077 20.3865C123.125 11.5348 132.484 4.64386 143.635 1.99346C144.312 1.82621 144.976 1.63097 145.643 1.43073C157.525 -1.86781 171.191 0.825828 181.824 6.55628C192.702 12.7342 201.224 22.912 204.849 34.9345C204.971 35.3308 204.971 35.3308 205.095 35.7351C207.913 45.3906 207.194 56.1193 204.515 65.7026C204.427 66.0346 204.339 66.3665 204.249 66.7085C203.844 68.2386 203.436 69.7255 202.801 71.179C202.256 72.4324 201.718 73.6862 201.203 74.9519C196.848 85.5465 190.519 95.1148 183.111 103.828C182.962 104.005 182.813 104.182 182.659 104.364C180.508 106.919 178.298 109.407 176.02 111.85C175.199 112.731 174.398 113.628 173.6 114.53C171.159 117.251 168.579 119.881 165.79 122.246C164.97 122.962 164.178 123.703 163.385 124.448C161.539 126.182 159.674 127.857 157.696 129.44C156.935 130.052 156.182 130.671 155.433 131.298C145.719 139.421 135.31 146.503 124.25 152.656C124.015 152.787 123.781 152.918 123.539 153.053C121.207 154.351 118.838 155.558 116.411 156.669C116.091 156.821 116.091 156.821 115.764 156.977C114.242 157.652 112.845 158.019 111.207 157.673C109.806 157.107 108.508 156.387 107.194 155.645C106.813 155.435 106.433 155.224 106.041 155.008C95.3248 149.044 85.4399 141.853 75.9907 134.06C75.4687 133.631 74.9426 133.208 74.4162 132.785C72.4525 131.204 70.5834 129.549 68.7399 127.832C67.9879 127.134 67.2204 126.457 66.4459 125.785C65.0169 124.54 63.6316 123.252 62.2537 121.951C62.0056 121.717 61.7576 121.482 61.502 121.241C59.029 118.901 56.5786 116.558 54.3644 113.967C53.6342 113.136 52.8813 112.33 52.1241 111.524C50.36 109.645 48.6592 107.743 47.0486 105.729C46.2957 104.794 45.5175 103.884 44.7375 102.971C39.8705 97.137 35.6813 90.7024 31.9453 84.0966C31.8182 83.8736 31.6911 83.6505 31.5601 83.4207C26.694 74.8137 23.6792 65.7609 22.2467 56.0039C22.1825 55.5702 22.1182 55.1366 22.052 54.6897C20.585 42.2628 24.1839 29.3698 31.9035 19.5295C39.6398 10.1302 49.8592 3.16996 62.0446 1.15639C62.5002 1.07333 62.5002 1.07333 62.965 0.988598C65.866 0.490907 68.7195 0.339486 71.6597 0.341199ZM64.3857 13.1961C64.0554 13.3009 64.0554 13.3009 63.7185 13.4079C58.473 15.0937 53.5671 17.6879 49.336 21.2226C49.0071 21.4968 48.6782 21.7709 48.3393 22.0534C40.1033 29.1492 35.1014 39.4791 34.2065 50.28C33.4811 65.8876 40.323 80.7335 49.336 93.1264C49.471 93.312 49.6059 93.4977 49.7449 93.6889C52.0328 96.8177 54.4513 99.8344 56.9654 102.783C57.1155 102.96 57.2657 103.137 57.4204 103.319C60.533 106.944 63.841 110.369 67.2184 113.746C67.8981 114.427 68.5751 115.11 69.252 115.793C71.4108 117.961 73.569 120.047 75.9802 121.936C76.8107 122.597 77.5899 123.299 78.3693 124.02C80.2259 125.707 82.1824 127.246 84.1713 128.772C84.7579 129.224 85.3405 129.68 85.9229 130.136C88.9116 132.453 92.0321 134.566 95.1747 136.666C95.3842 136.806 95.5937 136.947 95.8096 137.091C98.8796 139.144 102.002 141.088 105.187 142.957C105.653 143.232 105.653 143.232 106.129 143.512C106.91 143.965 107.698 144.404 108.49 144.839C108.745 144.987 109 145.136 109.263 145.289C110.798 146.124 111.97 146.53 113.712 146.217C115.571 145.663 117.292 144.803 119.024 143.94C119.339 143.785 119.339 143.785 119.661 143.627C127.024 140.009 133.958 135.676 140.637 130.918C140.915 130.72 141.192 130.523 141.478 130.32C146.301 126.869 150.941 123.196 155.316 119.189C155.967 118.593 156.628 118.013 157.296 117.436C161.454 113.804 165.603 110.029 169.179 105.813C169.82 105.065 170.487 104.344 171.155 103.619C172.859 101.73 174.416 99.7387 175.969 97.7247C176.394 97.175 176.825 96.6296 177.258 96.0854C180.879 91.4831 184.047 86.5945 186.789 81.4211C186.903 81.2085 187.017 80.9958 187.134 80.7767C193.021 69.6782 196.832 56.4601 193.478 43.9642C193.35 43.3738 193.35 43.3738 193.22 42.7715C190.932 32.8765 184.247 23.9354 175.761 18.4545C171.243 15.6945 166.536 13.7056 161.372 12.5272C161.143 12.4677 160.913 12.4081 160.677 12.3468C157.927 11.6965 155.151 11.7256 152.342 11.7329C151.951 11.7332 151.951 11.7332 151.552 11.7335C147.648 11.746 144.033 11.9527 140.303 13.1961C140.077 13.2695 139.852 13.343 139.619 13.4187C129.69 16.7037 121.612 23.0727 115.22 31.2557C114.93 31.6191 114.93 31.6191 114.633 31.9899C114.153 32.5629 114.153 32.5629 114.217 33.2623C113.153 32.2441 112.229 31.2164 111.345 30.0333C107.839 25.3512 103.707 21.4398 98.8326 18.2126C98.5041 17.9936 98.1756 17.7746 97.8372 17.549C93.4274 14.8035 88.4809 13.3151 83.4486 12.1928C83.1605 12.105 83.1605 12.105 82.8666 12.0154C81.7922 11.7922 80.7241 11.7907 79.6313 11.7787C79.3895 11.7754 79.1478 11.7721 78.8987 11.7687C71.5409 11.6639 71.5409 11.6639 64.3857 13.1961Z" fill="#E8384B"/>
<path d="M75.3902 11.7343C76.1468 11.7328 76.9028 11.7207 77.6593 11.708C81.1254 11.6814 84.1387 12.1993 87.4618 13.196C87.6819 13.261 87.902 13.326 88.1287 13.393C95.3616 15.537 101.138 19.3643 106.525 24.5668C106.789 24.8138 107.053 25.0609 107.326 25.3154C108.972 26.8923 110.371 28.5869 111.726 30.4141C112.492 31.4459 113.282 32.379 114.217 33.2622C114.298 33.0195 114.38 32.7767 114.464 32.5267C114.938 31.4748 115.498 30.8201 116.286 29.9805C116.691 29.544 116.691 29.544 117.104 29.0987C117.365 28.8172 117.626 28.5357 117.896 28.2456C118.295 27.7874 118.692 27.3277 119.087 26.8661C119.469 26.4327 119.852 26.0007 120.237 25.5701C120.415 25.3697 120.593 25.1692 120.776 24.9627C127.635 17.6779 138.211 12.0905 148.314 11.7611C149.552 11.7348 150.79 11.7296 152.029 11.7328C152.419 11.7331 152.419 11.7331 152.817 11.7334C156.716 11.7459 160.322 11.9678 164.048 13.196C164.279 13.2659 164.51 13.3358 164.748 13.4078C175.251 16.588 184.179 23.6268 189.441 33.2786C189.79 33.9388 190.131 34.6023 190.468 35.2688C190.658 35.6426 190.847 36.0163 191.042 36.4014C194.701 44.2697 195.592 53.8985 193.813 62.3581C193.745 62.7182 193.745 62.7182 193.676 63.0855C190.974 77.3401 182.618 89.8926 173.412 100.818C173.267 100.991 173.123 101.164 172.974 101.342C168.483 106.709 163.716 112.071 158.378 116.615C157.541 117.338 156.73 118.087 155.917 118.836C154.11 120.482 152.242 122.031 150.336 123.56C149.942 123.881 149.548 124.202 149.154 124.523C146.391 126.766 143.574 128.906 140.637 130.918C140.322 131.134 140.006 131.351 139.681 131.574C132.941 136.177 126.087 140.458 118.753 144.065C118.378 144.252 118.004 144.438 117.618 144.631C113.064 146.814 113.064 146.814 110.707 146.021C109.763 145.594 108.869 145.116 107.967 144.609C107.468 144.338 107.468 144.338 106.959 144.061C103.364 142.078 99.9074 139.881 96.4916 137.606C96.2483 137.445 96.0049 137.283 95.7542 137.117C88.1047 132.01 80.9725 126.301 74.0844 120.216C73.8526 120.014 73.6209 119.812 73.3821 119.604C70.8522 117.369 68.4665 114.994 66.0807 112.608C65.3701 111.898 64.6569 111.191 63.9435 110.484C61.7222 108.272 59.5723 106.066 57.64 103.593C56.9903 102.777 56.2987 102.018 55.5859 101.257C47.5358 92.3606 41.3926 81.609 37.2964 70.3846C37.2029 70.1304 37.1094 69.8762 37.0131 69.6143C33.1587 58.923 32.9663 46.9119 37.6613 36.4632C39.3784 32.84 41.3881 29.6271 43.9851 26.5734C44.2248 26.2833 44.4645 25.9932 44.7115 25.6942C52.3132 16.8301 63.7902 11.7318 75.3902 11.7343ZM123.247 27.9112C122.953 28.1638 122.659 28.4164 122.356 28.6767C119.595 31.1038 117.391 33.7707 115.225 36.728C114.697 37.4194 114.184 38.0236 113.548 38.6131C113.349 38.3217 113.15 38.0303 112.946 37.73C110.996 34.913 108.902 32.3808 106.525 29.9178C106.257 29.629 105.989 29.3401 105.713 29.0425C100.431 23.4923 93.2428 19.5606 85.7897 17.8781C85.5549 17.8175 85.3201 17.757 85.0783 17.6945C82.38 17.0579 79.662 17.0761 76.9062 17.0838C76.6526 17.0841 76.399 17.0844 76.1377 17.0847C72.3903 17.099 68.947 17.2659 65.389 18.547C65.161 18.6259 64.9329 18.7049 64.698 18.7862C58.9373 20.8132 54.3246 23.9798 50.005 28.2456C49.7588 28.4638 49.5126 28.6819 49.259 28.9067C44.4637 33.2521 41.6919 40.1221 40.3063 46.3052C40.248 46.5544 40.1897 46.8035 40.1296 47.0603C38.5463 56.2653 40.6896 65.645 44.3195 74.0634C44.4406 74.3468 44.5616 74.6302 44.6863 74.9222C47.5844 81.6035 51.4454 87.8055 56.0248 93.4607C56.3067 93.8289 56.5871 94.1982 56.8661 94.5685C58.5982 96.8671 60.4296 99.0341 62.3791 101.153C62.7499 101.576 63.1192 102.001 63.4869 102.428C67.3217 106.815 71.3195 111.219 75.7801 114.981C76.5878 115.673 77.3604 116.398 78.1394 117.122C79.6838 118.53 81.2823 119.837 82.9358 121.114C83.9884 121.928 85.0288 122.751 86.0509 123.603C89.1415 126.177 92.3461 128.493 95.6941 130.72C96.4769 131.242 97.2554 131.77 98.0332 132.3C101.144 134.41 104.306 136.391 107.573 138.25C108.147 138.581 108.712 138.927 109.276 139.275C109.745 139.556 109.745 139.556 110.224 139.843C110.484 140.003 110.743 140.163 111.01 140.328C112.713 140.895 114.164 140.442 115.76 139.781C116.174 139.569 116.587 139.353 116.997 139.132C117.225 139.013 117.453 138.894 117.688 138.772C118.177 138.517 118.665 138.26 119.152 138.001C119.898 137.609 120.649 137.228 121.403 136.85C131.506 131.734 141.049 124.888 149.591 117.469C150.288 116.864 150.991 116.267 151.701 115.676C154.651 113.21 157.403 110.577 160.113 107.851C160.811 107.149 161.512 106.451 162.214 105.753C164.653 103.317 166.934 100.855 169.064 98.1428C169.377 97.7741 169.692 97.4075 170.01 97.0441C178.13 87.733 185.676 75.9828 188.127 63.6959C188.172 63.4725 188.218 63.249 188.264 63.0188C190.291 52.7274 188.895 42.4348 183.168 33.4991C181.96 31.7364 180.54 30.151 179.097 28.5801C178.731 28.1727 178.731 28.1727 178.358 27.757C173.082 22.1676 166.11 19.1085 158.697 17.5437C158.137 17.4208 158.137 17.4208 157.567 17.2954C145.009 14.9539 132.681 19.8046 123.247 27.9112Z" fill="#DFDFDF"/>
<path d="M190.135 12.8618C191.616 13.8228 192.856 14.8212 194.044 16.1226C194.216 16.3111 194.388 16.4996 194.566 16.6938C199.2 21.8961 202.838 28.2594 204.85 34.9346C204.972 35.3309 204.972 35.3309 205.096 35.7353C207.915 45.3908 207.196 56.1195 204.516 65.7028C204.428 66.0347 204.341 66.3667 204.25 66.7087C203.845 68.2387 203.437 69.7257 202.802 71.1792C202.258 72.4325 201.719 73.6864 201.204 74.952C196.849 85.5467 190.52 95.115 183.112 103.829C182.963 104.005 182.814 104.182 182.661 104.364C180.509 106.919 178.299 109.408 176.021 111.85C175.2 112.731 174.399 113.628 173.602 114.53C171.161 117.251 168.581 119.881 165.792 122.246C164.972 122.962 164.18 123.703 163.386 124.449C161.541 126.182 159.675 127.857 157.698 129.44C156.936 130.052 156.184 130.671 155.435 131.298C145.721 139.421 135.311 146.503 124.251 152.656C124.017 152.787 123.782 152.918 123.54 153.054C121.208 154.351 118.839 155.558 116.413 156.669C116.093 156.822 116.093 156.822 115.766 156.977C114.244 157.652 112.847 158.019 111.208 157.673C109.807 157.107 108.51 156.388 107.195 155.645C106.814 155.435 106.434 155.224 106.042 155.008C97.1166 150.041 88.8275 144.205 80.7745 137.941C80.5553 137.772 80.3361 137.603 80.1102 137.429C79.5694 137.011 79.0325 136.588 78.4962 136.164C78.0791 135.835 78.0791 135.835 77.6535 135.499C77.0957 134.931 77.0957 134.931 77.0957 133.928C77.5165 133.891 77.9372 133.854 78.3707 133.817C78.9491 133.763 79.5273 133.71 80.1056 133.656C80.3798 133.633 80.654 133.609 80.9365 133.585C81.221 133.558 81.5056 133.531 81.7987 133.503C82.1085 133.475 82.4183 133.447 82.7374 133.418C83.8269 133.278 83.8269 133.278 85.0137 132.89C86.9629 132.318 88.6161 131.898 90.5164 132.816C91.9828 133.66 93.3261 134.665 94.6745 135.684C95.1383 136.019 95.6032 136.352 96.0691 136.684C96.7617 137.178 97.4534 137.673 98.1414 138.173C100.403 139.811 102.77 141.231 105.188 142.623C105.498 142.805 105.809 142.987 106.128 143.175C106.91 143.63 107.698 144.069 108.491 144.504C108.746 144.653 109.001 144.802 109.264 144.955C110.799 145.79 111.971 146.195 113.713 145.883C115.573 145.329 117.294 144.468 119.026 143.606C119.236 143.502 119.446 143.399 119.662 143.293C127.025 139.674 133.959 135.341 140.639 130.583C140.916 130.386 141.194 130.189 141.479 129.985C146.303 126.535 150.943 122.862 155.317 118.855C155.969 118.259 156.63 117.678 157.298 117.101C161.335 113.576 165.357 109.914 168.835 105.825C169.48 105.073 170.151 104.348 170.822 103.619C172.526 101.73 174.083 99.7388 175.636 97.7249C176.061 97.1752 176.492 96.6298 176.925 96.0855C180.546 91.4833 183.714 86.5946 186.456 81.4213C186.57 81.2086 186.684 80.996 186.801 80.7769C192.688 69.6784 196.499 56.4603 193.145 43.9644C193.017 43.374 193.017 43.374 192.887 42.7717C192.097 39.3548 190.677 36.3616 189.091 33.2491C188.37 31.6377 188.532 30.6617 188.919 28.9252C189.593 25.6507 189.728 22.3817 189.864 19.0489C189.891 18.4449 189.918 17.8409 189.946 17.2369C190.013 15.7787 190.076 14.3204 190.135 12.8618Z" fill="#CD283B"/>
<path d="M183.113 34.9346C184.185 35.2827 184.457 35.6144 185.046 36.6015C185.243 37.0187 185.435 37.4388 185.621 37.8609C185.773 38.1972 185.773 38.1972 185.928 38.5402C186.891 40.7365 187.568 42.9712 188.129 45.3021C188.229 45.6854 188.329 46.0686 188.433 46.4635C191.577 59.8434 185.809 73.7488 178.902 84.9726C177.201 87.683 175.4 90.2816 173.414 92.7921C173.2 93.0671 172.985 93.3422 172.764 93.6255C168.63 98.8636 164.164 103.777 159.448 108.493C158.865 109.076 158.285 109.662 157.705 110.249C155.708 112.255 153.69 114.147 151.463 115.9C150.669 116.54 149.928 117.215 149.188 117.917C146.766 120.123 144.09 122.02 141.455 123.962C140.731 124.496 140.01 125.034 139.291 125.575C131.99 131.037 123.938 136.105 115.619 139.864C115.272 140.021 114.925 140.178 114.568 140.34C112.21 140.981 110.536 140.018 108.522 138.876C108.195 138.685 107.867 138.493 107.53 138.296C107.192 138.102 106.854 137.907 106.506 137.707C98.8279 133.245 98.8279 133.245 98.166 131.921C98.3843 131.901 98.6025 131.881 98.8274 131.861C116.223 130.207 130.868 120.618 143.984 109.514C144.332 109.223 144.681 108.933 145.03 108.643C148.707 105.573 152.196 102.337 155.596 98.9633C156.072 98.4918 156.549 98.0216 157.025 97.5515C159.068 95.5115 160.912 93.3746 162.712 91.1199C163.234 90.5128 163.756 89.9065 164.28 89.3014C176.409 74.7093 183.005 57.6815 182.783 38.7639C182.781 38.5352 182.779 38.3066 182.777 38.071C182.77 37.4418 182.76 36.8125 182.751 36.1832C182.778 35.269 182.778 35.269 183.113 34.9346Z" fill="#CF273B"/>
<path d="M20.6377 3.41395C21.6818 4.24923 22.4363 4.91344 22.7619 6.23706C22.8585 8.90149 21.7426 10.4126 20.2406 12.5273C15.4507 19.8979 11.4627 28.3363 10.6356 37.187C10.5408 37.9539 10.3731 38.6729 10.1905 39.4233C9.70017 41.7817 9.7858 44.1732 9.80423 46.5708C9.8103 47.3859 9.81109 48.201 9.81101 49.0162C9.84636 66.0894 15.7763 82.8114 25.8359 96.595C26.8062 97.9894 27.177 99.0648 27.0704 100.782C26.7736 102.266 25.9799 103.161 24.86 104.121C23.2357 104.771 21.6403 104.786 20.0107 104.142C17.9683 102.431 16.5618 100.229 15.1822 97.9758C14.9948 97.6698 14.8073 97.3638 14.6141 97.0485C9.3579 88.356 5.41194 79.2159 2.84989 69.3815C2.7644 69.0599 2.6789 68.7383 2.59082 68.4069C-0.730826 55.602 -1.32575 38.7092 3.59413 26.2406C3.87589 25.5117 4.12427 24.7762 4.36923 24.034C5.59419 20.3584 7.02099 16.9336 8.86975 13.5306C8.99143 13.303 9.11311 13.0753 9.23848 12.8407C13.8623 4.21372 13.8623 4.21372 16.4991 3.10042C18.158 2.67757 19.1076 2.57388 20.6377 3.41395Z" fill="url(#paint0_linear_939_1008)"/>
<path d="M214.548 3.1627C217.116 5.10315 218.687 8.42509 220.234 11.1892C220.357 11.4079 220.479 11.6266 220.606 11.852C221.845 14.078 223.038 16.3037 223.918 18.7009C224.109 19.1934 224.309 19.6828 224.534 20.1609C225.568 22.3669 226.26 24.6291 226.923 26.9704C227.097 27.5857 227.097 27.5857 227.275 28.2134C232.173 45.8919 230.253 64.8807 223.244 81.7552C223.147 81.9884 223.05 82.2216 222.95 82.4618C222.197 84.2525 221.399 86.0191 220.568 87.7751C220.453 88.0192 220.338 88.2633 220.219 88.5148C218.464 92.1704 216.356 95.575 214.13 98.9578C213.936 99.2571 213.936 99.2571 213.737 99.5625C213.362 100.137 212.982 100.707 212.599 101.277C212.379 101.608 212.159 101.938 211.931 102.279C210.944 103.474 209.876 104.335 208.352 104.698C206.384 104.717 205.358 104.376 203.939 102.995C202.947 101.823 203.021 100.624 203.037 99.143C203.282 97.3999 204.232 96.2215 205.268 94.8401C205.701 94.226 206.133 93.6107 206.563 92.9941C206.781 92.6835 206.999 92.3728 207.223 92.0527C213.517 82.8237 217.57 71.9725 219.565 61.0202C219.619 60.7243 219.674 60.4284 219.729 60.1235C222.664 43.3451 219.2 25.8396 209.66 11.7039C208.275 9.6483 207.52 8.36388 207.86 5.83819C208.401 4.59338 209.042 3.86525 210.201 3.1627C211.707 2.70157 213.046 2.65536 214.548 3.1627Z" fill="url(#paint1_linear_939_1008)"/>
<path d="M59.2135 31.1942C59.2283 31.1533 59.2416 31.1102 59.2539 31.0637C59.2596 31.0423 59.265 31.0208 59.2702 30.999C59.1982 31.0528 59.0936 31.1422 58.961 31.2659C57.1159 32.9872 56.8146 33.1892 56.5051 33.3967L55.5554 34.0329C55.1524 34.3602 54.7468 34.6684 54.3571 35.0115L53.267 36.2513C51.1039 39.0002 49.9203 42.1123 49.2172 45.5149C49.1245 45.857 49.0719 46.051 48.9878 46.2153C48.692 46.7933 47.9801 47.0369 47.3308 47.0369C46.6815 47.0369 45.9352 46.7999 45.7114 46.1904C45.6239 45.952 45.5926 45.6341 45.5332 45.0302C45.688 39.0028 47.4651 35.8816 51.6009 31.8408C55.4158 28.5378 56.0971 27.9478 57.5045 28.3204C58.2181 28.5093 58.9698 28.814 59.2209 29.5081C59.3857 29.9635 59.384 30.5229 59.2702 30.999C59.4321 30.8783 59.4298 30.9378 59.2135 31.1942C59.1764 31.2965 59.1298 31.3846 59.0653 31.4751C58.7456 31.924 58.5923 31.8994 58.9571 31.4863L59.1234 31.2982C59.1568 31.2605 59.1868 31.2259 59.2135 31.1942Z" fill="#FBF8F9"/>
<path d="M70.0722 22.2254C70.9479 22.8267 71.1898 23.2659 71.7444 24.232C71.9267 25.5308 71.8662 26.291 71.3472 27.4928C70.3281 28.7579 69.5136 29.193 67.8983 29.3949C66.5217 29.2228 66.0139 28.8965 65.0556 27.9108C64.2903 26.8174 64.229 25.8808 64.3868 24.5664C65.749 22.0365 67.3453 21.4005 70.0722 22.2254Z" fill="#D0D0D0"/>
<defs>
<linearGradient id="paint0_linear_939_1008" x1="13.544" y1="2.78027" x2="13.544" y2="104.617" gradientUnits="userSpaceOnUse">
<stop stop-color="#E9E9EF"/>
<stop offset="1" stop-color="#D4143C"/>
</linearGradient>
<linearGradient id="paint1_linear_939_1008" x1="216.515" y1="2.79932" x2="216.515" y2="104.699" gradientUnits="userSpaceOnUse">
<stop stop-color="#E9E9EF"/>
<stop offset="1" stop-color="#D4143C"/>
</linearGradient>
</defs>
</svg>
