<svg width="250" height="172" viewBox="0 0 250 172" fill="none" xmlns="http://www.w3.org/2000/svg">
<path d="M77.892 0.370869C78.1519 0.370722 78.4119 0.370576 78.6798 0.370425C86.4485 0.395419 93.4635 2.00854 100.521 5.25564C100.761 5.36347 101.001 5.47131 101.249 5.58241C109.754 9.43253 118.384 16.5773 123.423 24.5221C123.423 24.762 123.423 25.0019 123.423 25.2491C124.431 24.2741 125.315 23.269 126.172 22.1592C133.832 12.5378 144.005 5.04767 156.126 2.1668C156.862 1.98501 157.583 1.7728 158.309 1.55514C171.224 -2.03022 186.078 0.89764 197.635 7.12639C209.459 13.8415 218.722 24.9044 222.663 37.9722C222.795 38.403 222.795 38.403 222.93 38.8425C225.993 49.3377 225.212 60.9992 222.299 71.4159C222.204 71.7767 222.109 72.1375 222.011 72.5093C221.571 74.1724 221.127 75.7886 220.436 77.3685C219.845 78.7308 219.26 80.0937 218.7 81.4694C213.966 92.9854 207.087 103.386 199.034 112.857C198.872 113.049 198.711 113.241 198.544 113.439C196.205 116.216 193.803 118.921 191.327 121.576C190.434 122.533 189.564 123.509 188.697 124.489C186.044 127.446 183.239 130.305 180.208 132.876C179.317 133.654 178.456 134.46 177.593 135.27C175.587 137.154 173.56 138.975 171.41 140.696C170.582 141.361 169.764 142.033 168.95 142.715C158.391 151.544 147.077 159.242 135.055 165.93C134.8 166.073 134.545 166.216 134.282 166.362C131.748 167.773 129.173 169.085 126.535 170.293C126.187 170.458 126.187 170.458 125.832 170.627C124.177 171.36 122.659 171.76 120.878 171.383C119.355 170.768 117.945 169.986 116.516 169.179C116.102 168.951 115.689 168.722 115.262 168.486C103.615 162.005 92.8704 154.188 82.5996 145.717C82.0322 145.252 81.4603 144.791 80.8881 144.331C78.7537 142.613 76.7221 140.814 74.7183 138.948C73.9009 138.189 73.0667 137.454 72.2248 136.723C70.6716 135.369 69.1657 133.969 67.668 132.555C67.3984 132.301 67.1288 132.046 66.851 131.784C64.163 129.24 61.4995 126.694 59.0927 123.877C58.299 122.974 57.4807 122.098 56.6576 121.222C54.7401 119.179 52.8915 117.112 51.1407 114.923C50.3225 113.906 49.4765 112.917 48.6288 111.925C43.3385 105.584 38.7851 98.5896 34.7242 91.4093C34.586 91.1669 34.4479 90.9245 34.3055 90.6747C29.0162 81.3192 25.7393 71.4792 24.1822 60.8739C24.1124 60.4024 24.0426 59.931 23.9706 59.4453C22.376 45.9378 26.2878 31.9237 34.6788 21.2277C43.0877 11.0111 54.1958 3.44561 67.4408 1.25694C67.936 1.16667 67.936 1.16667 68.4412 1.07456C71.5945 0.533595 74.6961 0.369006 77.892 0.370869Z" fill="#E83549"/>
<path d="M77.892 0.370869C78.1519 0.370722 78.4119 0.370576 78.6798 0.370425C86.4485 0.395419 93.4635 2.00854 100.521 5.25564C100.761 5.36347 101.001 5.47131 101.249 5.58241C109.754 9.43253 118.384 16.5773 123.423 24.5221C123.423 24.762 123.423 25.0019 123.423 25.2491C124.431 24.2741 125.315 23.269 126.172 22.1592C133.832 12.5378 144.005 5.04767 156.126 2.1668C156.862 1.98501 157.583 1.7728 158.309 1.55514C171.224 -2.03022 186.078 0.89764 197.635 7.12639C209.459 13.8415 218.722 24.9044 222.663 37.9722C222.795 38.403 222.795 38.403 222.93 38.8425C225.993 49.3377 225.212 60.9992 222.299 71.4159C222.204 71.7767 222.109 72.1375 222.011 72.5093C221.571 74.1724 221.127 75.7886 220.436 77.3685C219.845 78.7308 219.26 80.0937 218.7 81.4694C213.966 92.9854 207.087 103.386 199.034 112.857C198.872 113.049 198.711 113.241 198.544 113.439C196.205 116.216 193.803 118.921 191.327 121.576C190.434 122.533 189.564 123.509 188.697 124.489C186.044 127.446 183.239 130.305 180.208 132.876C179.317 133.654 178.456 134.46 177.593 135.27C175.587 137.154 173.56 138.975 171.41 140.696C170.582 141.361 169.764 142.033 168.95 142.715C158.391 151.544 147.077 159.242 135.055 165.93C134.8 166.073 134.545 166.216 134.282 166.362C131.748 167.773 129.173 169.085 126.535 170.293C126.187 170.458 126.187 170.458 125.832 170.627C124.177 171.36 122.659 171.76 120.878 171.383C119.355 170.768 117.945 169.986 116.516 169.179C116.102 168.951 115.689 168.722 115.262 168.486C103.615 162.005 92.8704 154.188 82.5996 145.717C82.0322 145.252 81.4603 144.791 80.8881 144.331C78.7537 142.613 76.7221 140.814 74.7183 138.948C73.9009 138.189 73.0667 137.454 72.2248 136.723C70.6716 135.369 69.1657 133.969 67.668 132.555C67.3984 132.301 67.1288 132.046 66.851 131.784C64.163 129.24 61.4995 126.694 59.0927 123.877C58.299 122.974 57.4807 122.098 56.6576 121.222C54.7401 119.179 52.8915 117.112 51.1407 114.923C50.3225 113.906 49.4765 112.917 48.6288 111.925C43.3385 105.584 38.7851 98.5896 34.7242 91.4093C34.586 91.1669 34.4479 90.9245 34.3055 90.6747C29.0162 81.3192 25.7393 71.4792 24.1822 60.8739C24.1124 60.4024 24.0426 59.931 23.9706 59.4453C22.376 45.9378 26.2878 31.9237 34.6788 21.2277C43.0877 11.0111 54.1958 3.44561 67.4408 1.25694C67.936 1.16667 67.936 1.16667 68.4412 1.07456C71.5945 0.533595 74.6961 0.369006 77.892 0.370869ZM69.9854 14.3436C69.6264 14.4575 69.6264 14.4575 69.2602 14.5738C63.5586 16.4062 58.2261 19.226 53.6271 23.068C53.2696 23.366 52.9121 23.6641 52.5437 23.9711C43.5916 31.6839 38.1547 42.9121 37.182 54.6522C36.3935 71.617 43.8304 87.7538 53.6271 101.224C53.7738 101.426 53.9205 101.628 54.0716 101.836C56.5584 105.237 59.1872 108.516 61.9199 111.721C62.0831 111.913 62.2463 112.105 62.4145 112.303C65.7977 116.244 69.3934 119.967 73.0645 123.637C73.8033 124.377 74.5391 125.119 75.2749 125.862C77.6214 128.218 79.9673 130.486 82.5881 132.539C83.4909 133.258 84.3378 134.021 85.185 134.804C87.2031 136.638 89.3296 138.311 91.4916 139.97C92.1291 140.46 92.7624 140.956 93.3954 141.453C96.644 143.97 100.036 146.268 103.452 148.55C103.68 148.702 103.907 148.855 104.142 149.012C107.479 151.244 110.872 153.357 114.335 155.388C114.841 155.687 114.841 155.687 115.358 155.991C116.208 156.484 117.064 156.961 117.924 157.433C118.202 157.595 118.479 157.757 118.765 157.923C120.433 158.831 121.707 159.271 123.601 158.932C125.622 158.33 127.493 157.394 129.375 156.456C129.718 156.288 129.718 156.288 130.067 156.117C138.07 152.183 145.607 147.473 152.867 142.302C153.169 142.087 153.471 141.873 153.781 141.652C159.024 137.901 164.068 133.909 168.823 129.553C169.53 128.906 170.249 128.275 170.975 127.648C175.494 123.7 180.004 119.596 183.891 115.014C184.588 114.201 185.313 113.417 186.038 112.63C187.891 110.576 189.584 108.412 191.271 106.223C191.734 105.625 192.202 105.032 192.673 104.441C196.609 99.4381 200.052 94.1244 203.033 88.5012C203.156 88.2701 203.28 88.0389 203.407 87.8008C209.806 75.7372 213.949 61.3697 210.303 47.7872C210.164 47.1455 210.164 47.1455 210.022 46.4908C207.536 35.7353 200.27 26.0167 191.045 20.0592C186.135 17.0592 181.018 14.8974 175.406 13.6165C175.156 13.5518 174.907 13.4871 174.649 13.4204C171.66 12.7136 168.644 12.7452 165.591 12.7532C165.165 12.7535 165.165 12.7535 164.731 12.7538C160.488 12.7674 156.559 12.992 152.504 14.3436C152.259 14.4234 152.014 14.5033 151.761 14.5855C140.968 18.1561 132.188 25.0791 125.24 33.9735C124.925 34.3686 124.925 34.3686 124.603 34.7716C124.081 35.3945 124.081 35.3945 124.15 36.1546C122.993 35.0479 121.989 33.9309 121.028 32.6449C117.217 27.5557 112.726 23.3041 107.428 19.7963C107.071 19.5583 106.714 19.3203 106.346 19.075C101.552 16.0908 96.1758 14.4729 90.706 13.253C90.3928 13.1576 90.3928 13.1576 90.0733 13.0602C88.9056 12.8176 87.7446 12.816 86.5567 12.8029C86.294 12.7993 86.0312 12.7958 85.7605 12.7921C77.7629 12.6781 77.7629 12.6781 69.9854 14.3436Z" fill="#E8384B"/>
<path d="M81.9469 12.7552C82.7693 12.7536 83.591 12.7404 84.4133 12.7266C88.1807 12.6977 91.4561 13.2607 95.0682 14.344C95.3074 14.4147 95.5466 14.4853 95.7931 14.5581C103.655 16.8886 109.933 21.0487 115.789 26.7036C116.076 26.9721 116.363 27.2406 116.659 27.5173C118.448 29.2313 119.97 31.0733 121.442 33.0593C122.275 34.1809 123.134 35.1951 124.15 36.1551C124.238 35.8913 124.327 35.6274 124.418 35.3556C124.933 34.2123 125.542 33.5007 126.399 32.5881C126.839 32.1136 126.839 32.1136 127.288 31.6296C127.572 31.3236 127.856 31.0176 128.148 30.7023C128.582 30.2042 129.014 29.7045 129.443 29.2028C129.858 28.7318 130.275 28.2622 130.693 27.7942C130.887 27.5763 131.08 27.3584 131.279 27.1339C138.735 19.2157 150.231 13.1424 161.211 12.7844C162.558 12.7558 163.903 12.7501 165.25 12.7536C165.674 12.7539 165.674 12.7539 166.107 12.7542C170.344 12.7679 174.264 13.009 178.314 14.344C178.565 14.42 178.816 14.496 179.075 14.5742C190.491 18.031 200.196 25.6818 205.916 36.1729C206.295 36.8906 206.666 37.6118 207.032 38.3362C207.237 38.7425 207.443 39.1487 207.655 39.5673C211.633 48.1198 212.601 58.5859 210.667 67.7811C210.593 68.1725 210.593 68.1725 210.518 68.5717C207.581 84.0659 198.498 97.7099 188.492 109.586C188.335 109.774 188.178 109.962 188.016 110.155C183.134 115.989 177.953 121.817 172.151 126.756C171.241 127.541 170.36 128.356 169.476 129.17C167.512 130.959 165.481 132.643 163.41 134.305C162.981 134.654 162.553 135.002 162.124 135.351C159.122 137.79 156.059 140.116 152.868 142.302C152.524 142.538 152.181 142.773 151.828 143.015C144.502 148.019 137.052 152.673 129.08 156.593C128.673 156.796 128.266 156.999 127.847 157.208C122.896 159.581 122.896 159.581 120.334 158.719C119.309 158.255 118.337 157.736 117.356 157.184C116.814 156.889 116.814 156.889 116.261 156.589C112.353 154.434 108.596 152.045 104.883 149.573C104.619 149.397 104.354 149.221 104.082 149.04C95.7669 143.49 88.0146 137.284 80.5275 130.67C80.2756 130.45 80.0237 130.231 79.7642 130.004C77.0143 127.576 74.4211 124.994 71.8278 122.401C71.0555 121.629 70.2802 120.861 69.5048 120.092C67.0904 117.687 64.7535 115.29 62.6532 112.602C61.947 111.715 61.1952 110.89 60.4204 110.063C51.6704 100.392 44.993 88.706 40.5406 76.5056C40.4389 76.2293 40.3373 75.953 40.2326 75.6683C36.0431 64.0473 35.834 50.9918 40.9373 39.6344C42.8036 35.6962 44.988 32.2039 47.8109 28.8847C48.0715 28.5694 48.332 28.254 48.6004 27.9291C56.8632 18.2942 69.3382 12.7525 81.9469 12.7552ZM133.965 30.3388C133.645 30.6134 133.325 30.888 132.996 31.1709C129.996 33.809 127.6 36.7078 125.246 39.9223C124.671 40.6738 124.114 41.3306 123.423 41.9714C123.207 41.6546 122.991 41.3378 122.768 41.0115C120.649 37.9495 118.373 35.197 115.789 32.5199C115.498 32.2059 115.207 31.892 114.907 31.5685C109.165 25.5357 101.352 21.2621 93.2506 19.4333C92.9955 19.3674 92.7403 19.3016 92.4774 19.2338C89.5444 18.5417 86.5901 18.5615 83.5947 18.5699C83.319 18.5702 83.0434 18.5705 82.7594 18.5709C78.6861 18.5864 74.9434 18.7679 71.0761 20.1603C70.8282 20.2461 70.5803 20.3319 70.3249 20.4203C64.0633 22.6236 59.0495 26.0655 54.3542 30.7023C54.0867 30.9394 53.8191 31.1765 53.5434 31.4208C48.3311 36.1441 45.3183 43.6115 43.8122 50.3323C43.7488 50.6031 43.6855 50.874 43.6202 51.153C41.8991 61.1585 44.2288 71.3539 48.1744 80.5043C48.306 80.8123 48.4375 81.1203 48.5731 81.4377C51.7232 88.7001 55.9199 95.4414 60.8976 101.588C61.2039 101.988 61.5087 102.39 61.812 102.792C63.6947 105.291 65.6854 107.646 67.8044 109.949C68.2074 110.41 68.6088 110.872 69.0085 111.335C73.1768 116.104 77.5222 120.891 82.3707 124.98C83.2486 125.732 84.0884 126.521 84.9352 127.307C86.6138 128.838 88.3513 130.258 90.1486 131.646C91.2927 132.531 92.4237 133.426 93.5346 134.352C96.8939 137.149 100.377 139.667 104.016 142.088C104.867 142.655 105.713 143.229 106.559 143.805C109.94 146.098 113.377 148.252 116.929 150.272C117.552 150.632 118.166 151.008 118.779 151.386C119.29 151.692 119.29 151.692 119.81 152.004C120.092 152.178 120.373 152.351 120.664 152.53C122.515 153.148 124.092 152.655 125.827 151.937C126.277 151.706 126.726 151.471 127.171 151.231C127.419 151.102 127.668 150.973 127.923 150.839C128.454 150.562 128.984 150.283 129.513 150.002C130.325 149.575 131.142 149.161 131.961 148.75C142.942 143.189 153.315 135.748 162.6 127.685C163.358 127.027 164.122 126.378 164.893 125.736C168.1 123.054 171.091 120.193 174.037 117.229C174.795 116.467 175.558 115.708 176.321 114.95C178.971 112.302 181.451 109.626 183.767 106.678C184.106 106.277 184.448 105.878 184.795 105.483C193.62 95.3625 201.822 82.5905 204.487 69.2352C204.536 68.9924 204.585 68.7495 204.636 68.4993C206.839 57.3129 205.322 46.1253 199.096 36.4126C197.784 34.4966 196.24 32.7734 194.672 31.0658C194.274 30.623 194.274 30.623 193.868 30.1712C188.134 24.0958 180.555 20.7707 172.498 19.0697C171.89 18.9362 171.89 18.9362 171.269 18.7999C157.62 16.2548 144.22 21.5273 133.965 30.3388Z" fill="#FCFAFA"/>
<path d="M206.668 13.9795C208.277 15.0241 209.625 16.1092 210.916 17.5238C211.104 17.7287 211.291 17.9336 211.483 18.1447C216.521 23.7994 220.475 30.716 222.663 37.9717C222.795 38.4025 222.795 38.4025 222.93 38.8419C225.993 49.3371 225.212 60.9987 222.299 71.4153C222.204 71.7761 222.109 72.1369 222.01 72.5087C221.57 74.1718 221.126 75.788 220.436 77.3679C219.844 78.7303 219.259 80.0931 218.699 81.4688C213.965 92.9848 207.087 103.385 199.034 112.856C198.872 113.049 198.71 113.241 198.544 113.439C196.205 116.215 193.802 118.921 191.326 121.575C190.434 122.533 189.563 123.508 188.696 124.489C186.043 127.446 183.239 130.305 180.208 132.875C179.316 133.653 178.455 134.459 177.593 135.269C175.587 137.153 173.559 138.975 171.409 140.695C170.582 141.361 169.764 142.033 168.95 142.714C158.391 151.543 147.077 159.241 135.055 165.93C134.8 166.072 134.545 166.215 134.282 166.362C131.747 167.772 129.172 169.084 126.535 170.292C126.187 170.458 126.187 170.458 125.832 170.626C124.177 171.36 122.658 171.759 120.878 171.383C119.355 170.768 117.944 169.986 116.515 169.179C116.102 168.95 115.688 168.722 115.262 168.486C105.561 163.087 96.5508 156.744 87.7975 149.935C87.5592 149.751 87.321 149.568 87.0755 149.378C86.4876 148.924 85.9041 148.464 85.3211 148.004C84.8677 147.646 84.8677 147.646 84.4052 147.281C83.7988 146.663 83.7988 146.663 83.7988 145.573C84.2562 145.533 84.7135 145.493 85.1847 145.452C85.8133 145.394 86.4419 145.336 87.0705 145.278C87.3685 145.252 87.6665 145.226 87.9736 145.2C88.2829 145.171 88.5922 145.142 88.9108 145.111C89.2475 145.081 89.5842 145.05 89.9311 145.019C91.1153 144.866 91.1153 144.866 92.4053 144.445C94.5241 143.823 96.321 143.366 98.3866 144.364C99.9804 145.282 101.441 146.374 102.906 147.481C103.41 147.846 103.916 148.208 104.422 148.569C105.175 149.106 105.927 149.644 106.675 150.187C109.133 151.968 111.706 153.511 114.334 155.024C114.671 155.222 115.008 155.42 115.356 155.624C116.206 156.119 117.062 156.596 117.924 157.069C118.201 157.231 118.479 157.393 118.765 157.559C120.433 158.467 121.707 158.907 123.6 158.568C125.622 157.966 127.492 157.03 129.375 156.092C129.603 155.98 129.831 155.868 130.067 155.753C138.07 151.819 145.607 147.109 152.867 141.938C153.169 141.723 153.47 141.509 153.781 141.288C159.024 137.537 164.067 133.545 168.822 129.189C169.53 128.541 170.249 127.91 170.975 127.283C175.364 123.451 179.735 119.47 183.515 115.026C184.217 114.209 184.946 113.421 185.675 112.629C187.527 110.575 189.22 108.411 190.907 106.222C191.37 105.624 191.838 105.032 192.309 104.44C196.245 99.4376 199.689 94.1238 202.669 88.5006C202.793 88.2695 202.916 88.0384 203.043 87.8002C209.443 75.7366 213.585 61.3691 209.94 47.7866C209.8 47.1449 209.8 47.1449 209.658 46.4902C208.8 42.7763 207.257 39.5227 205.532 36.1396C204.749 34.388 204.925 33.3272 205.346 31.4397C206.079 27.8804 206.226 24.3272 206.372 20.7046C206.402 20.048 206.432 19.3915 206.463 18.735C206.535 17.15 206.603 15.5649 206.668 13.9795Z" fill="#CD283B"/>
<path d="M199.035 37.9717C200.201 38.3501 200.496 38.7106 201.136 39.7836C201.351 40.2371 201.558 40.6936 201.761 41.1525C201.926 41.518 201.926 41.518 202.094 41.8909C203.141 44.2781 203.877 46.7071 204.487 49.2407C204.596 49.6573 204.705 50.0739 204.817 50.5031C208.235 65.0465 201.965 80.161 194.457 92.3608C192.609 95.3069 190.651 98.1315 188.493 100.86C188.259 101.159 188.026 101.458 187.786 101.766C183.293 107.46 178.438 112.8 173.312 117.926C172.678 118.56 172.048 119.198 171.417 119.835C169.247 122.016 167.053 124.073 164.633 125.978C163.77 126.673 162.965 127.407 162.16 128.17C159.527 130.568 156.619 132.629 153.754 134.74C152.967 135.321 152.184 135.906 151.402 136.494C143.467 142.431 134.714 147.939 125.672 152.025C125.295 152.196 124.918 152.367 124.529 152.542C121.966 153.24 120.146 152.192 117.958 150.952C117.602 150.744 117.246 150.536 116.88 150.321C116.512 150.11 116.145 149.898 115.766 149.681C107.421 144.831 107.421 144.831 106.701 143.392C106.938 143.37 107.176 143.349 107.42 143.326C126.328 141.528 142.247 131.106 156.503 119.036C156.882 118.72 157.261 118.405 157.641 118.089C161.638 114.753 165.43 111.235 169.125 107.568C169.642 107.056 170.16 106.545 170.679 106.034C172.899 103.816 174.904 101.493 176.86 99.0427C177.427 98.3828 177.995 97.7238 178.564 97.066C191.747 81.2051 198.918 62.6967 198.677 42.1339C198.674 41.8854 198.672 41.6369 198.669 41.3809C198.662 40.6969 198.652 40.0129 198.641 39.3289C198.671 38.3352 198.671 38.3352 199.035 37.9717Z" fill="#CF273B"/>
<path d="M22.4323 3.71026C23.5672 4.61818 24.3873 5.34014 24.7412 6.77886C24.8462 9.67498 23.6332 11.3175 22.0006 13.6161C16.7942 21.6276 12.4594 30.7998 11.5604 40.4201C11.4573 41.2537 11.2752 42.0352 11.0766 42.8509C10.5437 45.4144 10.6367 48.0138 10.6568 50.6199C10.6634 51.5059 10.6642 52.3918 10.6641 53.2779C10.7026 71.8358 17.1482 90.0118 28.0825 104.994C29.1372 106.51 29.5402 107.679 29.4243 109.545C29.1017 111.158 28.239 112.131 27.0217 113.175C25.2562 113.881 23.522 113.898 21.7507 113.197C19.5308 111.337 18.002 108.944 16.5024 106.495C16.2986 106.162 16.0949 105.83 15.8849 105.487C10.1716 96.0386 5.88254 86.1037 3.09771 75.4141C3.00478 75.0645 2.91185 74.7149 2.81611 74.3547C-0.794376 60.4364 -1.44103 42.0747 3.90666 28.5219C4.21292 27.7295 4.4829 26.93 4.74916 26.1234C6.08063 22.1282 7.63151 18.4056 9.64103 14.7067C9.77329 14.4592 9.90555 14.2117 10.0418 13.9567C15.0677 4.57958 15.0677 4.57958 17.9338 3.36947C19.7369 2.90985 20.7691 2.79715 22.4323 3.71026Z" fill="#E9E9EF"/>
<path d="M233.204 3.43795C235.995 5.54713 237.703 9.15794 239.384 12.1624C239.518 12.4001 239.651 12.6379 239.788 12.8828C241.135 15.3024 242.432 17.7216 243.389 20.3273C243.596 20.8626 243.814 21.3945 244.058 21.9143C245.182 24.3121 245.935 26.771 246.655 29.3159C246.844 29.9847 246.844 29.9847 247.038 30.667C252.362 49.8827 250.274 70.5227 242.656 88.8646C242.551 89.1181 242.445 89.3715 242.337 89.6327C241.518 91.579 240.65 93.4992 239.748 95.4079C239.623 95.6733 239.497 95.9386 239.368 96.212C237.46 100.185 235.169 103.886 232.75 107.563C232.539 107.888 232.539 107.888 232.323 108.22C231.915 108.845 231.502 109.465 231.086 110.084C230.846 110.443 230.607 110.803 230.36 111.173C229.287 112.472 228.126 113.408 226.469 113.803C224.33 113.823 223.214 113.453 221.673 111.951C220.594 110.677 220.674 109.375 220.692 107.764C220.958 105.87 221.991 104.589 223.117 103.087C223.588 102.42 224.057 101.751 224.524 101.081C224.761 100.743 224.998 100.405 225.242 100.058C232.083 90.026 236.488 78.2312 238.657 66.3265C238.716 66.0049 238.775 65.6833 238.836 65.3519C242.025 47.1145 238.261 28.0868 227.891 12.7219C226.386 10.4875 225.565 9.09141 225.934 6.34609C226.522 4.99304 227.219 4.20159 228.479 3.43795C230.116 2.93673 231.572 2.88649 233.204 3.43795Z" fill="#E9E9EF"/>
<path d="M66.5302 31.9204C66.6283 31.7826 66.6884 31.6501 66.7353 31.4731C66.8762 30.941 66.8867 30.2999 66.6994 29.7823C66.4265 29.0278 65.6094 28.6966 64.8338 28.4912C63.304 28.0863 62.5634 28.7276 58.4168 32.3178L58.4168 32.3178C53.9214 36.71 49.6604 42.3943 49.4922 48.9459C49.5568 49.6023 49.5907 49.9478 49.6859 50.2069C49.9291 50.8694 50.7404 51.127 51.4461 51.127C52.1518 51.127 52.9257 50.8623 53.2472 50.234C53.3386 50.0555 53.3958 49.8446 53.4966 49.4727C54.2608 45.7742 55.5473 42.3916 57.8985 39.4036L61.4201 35.7911C61.8437 35.4182 62.2771 35.0563 62.7151 34.7005L63.7475 34.009L64.8508 33.2692L65.1604 33.0682L65.1823 33.054C65.6778 32.7323 66.1878 32.4011 66.5302 31.9204Z" fill="#FBF8F9"/>
<path d="M76.1645 24.1588C77.1164 24.8124 77.3792 25.2898 77.9821 26.3399C78.1802 27.7517 78.1145 28.5779 77.5504 29.8842C76.4426 31.2594 75.5573 31.7322 73.8016 31.9517C72.3052 31.7646 71.7533 31.4099 70.7117 30.3386C69.8798 29.1501 69.8132 28.1321 69.9847 26.7034C71.4654 23.9535 73.2005 23.2622 76.1645 24.1588Z" fill="#FBF8F9"/>
</svg>
