<svg width="326" height="142" viewBox="0 0 326 142" fill="none" xmlns="http://www.w3.org/2000/svg">
<path d="M91.4525 89.2359C90.9942 86.0904 91.1597 83.0411 89.9904 79.8249C88.943 84.9671 88.7485 89.8441 88.1704 94.6718C87.7699 98.0155 87.3988 101.363 87.0509 104.713C86.885 106.31 85.9594 106.969 84.4546 106.974C81.6511 106.983 78.8476 106.962 76.0442 106.973C74.4031 106.979 73.5481 106.201 73.3232 104.565C71.3228 90.003 69.292 75.4453 67.2856 60.8843C66.7961 57.3321 66.3344 53.7754 65.9149 50.2144C65.6394 47.8746 66.0512 47.4451 68.4518 47.401C70.1765 47.3693 71.9022 47.3935 73.6274 47.3867C75.1113 47.3808 75.867 48.1454 76.026 49.5877C77.0546 58.9215 78.069 68.2569 79.1302 77.587C79.621 81.9016 80.2066 86.2053 81.0722 90.4915C82.394 77.2298 83.7085 63.9673 85.0432 50.7069C85.3459 47.6988 85.7552 47.3699 88.826 47.3696C90.3356 47.3694 91.8459 47.3976 93.3546 47.3622C94.9684 47.3243 95.7223 48.1583 95.869 49.6789C96.7502 58.812 97.6223 67.946 98.5169 77.0778C98.9497 81.4951 99.1937 85.9342 100.064 90.8723C100.965 87.6376 100.963 84.8083 101.28 82.0445C102.496 71.4327 103.641 60.8122 104.703 50.184C104.915 48.0576 105.849 47.2723 107.875 47.3734C109.38 47.4486 110.894 47.3678 112.402 47.405C113.954 47.4432 114.586 48.285 114.38 49.8035C112.771 61.6653 111.161 73.5269 109.56 85.3899C108.756 91.3555 107.935 97.3194 107.193 103.293C106.798 106.468 106.345 106.965 103.173 106.989C101.088 107.005 99.0034 107.01 96.9187 106.999C93.9721 106.984 93.5986 106.619 93.2165 103.519C92.6377 98.8219 92.0503 94.1262 91.4525 89.2359Z" fill="white"/>
<path d="M172.447 90.784C157.605 108.199 143.056 125.668 127.154 142C127.397 140.076 128.59 138.671 129.601 137.232C140.625 121.538 152.235 106.272 163.853 91.0179C179.169 70.9081 194.638 50.9154 210.039 30.8704C210.878 29.7789 211.612 28.5563 213.35 29.2544C214.655 29.7783 215.224 30.3936 214.326 31.8306C213.12 33.7617 211.633 35.5507 210.787 38.1462C215.098 36.7973 217.574 33.6967 220.408 30.6873C217.75 28.768 214.869 27.8951 212.075 26.8559C205.398 24.3725 198.847 24.3817 192.555 28.0513C189.347 29.9216 186.702 32.4271 184.525 35.4373C183.822 36.4088 183.09 37.7166 181.616 36.6858C180.13 35.6462 180.879 34.467 181.681 33.3468C188.4 23.9602 199.551 18.9469 211.601 22.8349C215.523 24.1003 214.924 24.6181 217.92 20.747C218.755 19.668 219.59 18.5877 220.471 17.5462C221.214 16.667 222.055 15.8889 223.081 15.3217C225.918 13.752 228.783 13.7798 230.537 15.4175C232.34 17.1012 232.568 19.8156 231.123 22.7983C230.274 24.55 229.218 26.1743 227.953 27.6574C227.035 28.7335 227.128 29.4877 228.511 30.1098C236.145 33.5412 244.143 34.878 252.464 34.2511C257.843 33.8459 262.979 32.5566 267.405 29.291C270.993 26.6441 273.595 23.3758 274.003 18.6826C274.771 9.83921 268.463 5.1514 261.627 4.07054C260 3.81317 258.339 3.75182 256.691 3.64003C255.543 3.56219 254.691 3.06751 254.599 1.89202C254.5 0.623277 255.452 0.0838099 256.532 0.0311075C264.841 -0.374323 275.367 3.12285 277.382 14.0807C278.717 21.3403 275.881 27.1848 270.192 31.6554C264.806 35.888 258.485 37.6095 251.748 38.0626C242.94 38.6549 234.586 36.7958 226.584 33.2637C224.726 32.4436 223.527 32.5892 222.11 34.1382C212.851 44.2596 203.724 54.4975 194.738 64.8599C187.304 73.4312 179.94 82.0624 172.447 90.784ZM227.457 17.9631C226.634 17.7051 225.857 17.9153 225.209 18.3826C222.68 20.2059 220.904 22.6567 219.06 25.5889C220.981 26.0372 222.192 28.2137 224.118 26.3423C225.666 24.838 226.912 23.073 227.858 21.1276C228.336 20.1429 228.619 19.0937 227.457 17.9631Z" fill="white"/>
<path d="M118.189 57.8019C118.192 54.9311 118.211 52.2757 118.194 49.6205C118.185 48.0945 118.899 47.3919 120.428 47.4053C123.016 47.4279 125.605 47.4613 128.19 47.3769C130.005 47.3175 130.929 48.109 131.421 49.8268C133.945 58.6504 136.532 67.456 139.108 76.2646C139.46 77.4661 139.874 78.6492 140.6 79.7742C140.6 76.4988 140.603 73.2234 140.599 69.948C140.592 63.3455 140.615 56.7425 140.549 50.1405C140.53 48.2459 141.211 47.3832 143.182 47.3915C150.473 47.4224 149.792 46.7627 149.792 53.7286C149.792 70.1633 149.816 86.5979 149.833 103.033C149.837 106.606 149.454 107.035 145.905 106.998C139.099 106.927 140.125 107.868 138.12 101.403C135.039 91.4673 132.017 81.5131 128.971 71.5662C128.681 70.6197 128.447 69.6507 127.451 68.3102C127.451 69.8709 127.441 70.9052 127.452 71.9393C127.562 81.9124 127.33 91.8867 127.667 101.86C127.841 107.012 127.719 107.035 122.624 107.022C122.193 107.021 121.762 107.022 121.331 107.015C118.603 106.971 118.204 106.598 118.202 103.877C118.192 89.7384 118.196 75.6003 118.195 61.4621C118.195 60.3139 118.191 59.1656 118.189 57.8019Z" fill="white"/>
<path d="M292.274 93.5655C292.276 97.2261 292.302 100.672 292.27 104.117C292.249 106.494 291.725 106.983 289.304 107.022C287.939 107.044 286.572 106.999 285.207 107.025C283.304 107.061 282.496 106.148 282.488 104.26C282.472 100.171 282.366 96.0819 282.29 91.9933C282.269 90.8456 282.267 89.6954 282.187 88.5512C281.828 83.4324 278.558 81.1777 273.545 82.5127C272.237 82.8609 272.434 83.8486 272.431 84.7427C272.412 90.9157 272.423 97.0889 272.417 103.262C272.413 106.805 272.179 107.038 268.61 107.032C262.101 107.02 262.674 107.527 262.671 101.126C262.666 84.3291 262.662 67.5325 262.663 50.7359C262.663 47.5176 262.829 47.3608 266.112 47.3549C270.353 47.3471 274.594 47.3365 278.835 47.3509C286.67 47.3774 290.955 50.9205 292.052 58.6004C292.548 62.0747 292.424 65.6214 292.019 69.1229C291.667 72.1725 290.338 74.7297 287.873 76.6477C287.488 76.9471 287.028 77.2231 286.932 78.1258C289.99 80.0949 291.7 83.1738 292.101 86.9003C292.329 89.032 292.227 91.1991 292.274 93.5655ZM272.422 69.1995C272.449 74.2293 271.813 73.6355 276.9 73.6593C277.187 73.6606 277.475 73.6556 277.762 73.6447C280.624 73.5362 281.945 72.3358 282.139 69.4323C282.282 67.2871 282.256 65.1292 282.268 62.9768C282.301 56.7192 281.084 55.565 274.787 55.8329C274.643 55.839 274.5 55.8461 274.356 55.8457C272.901 55.8416 272.342 56.5675 272.369 58.0083C272.434 61.5961 272.409 65.1855 272.422 69.1995Z" fill="white"/>
<path d="M234.806 47.7446C238.886 47.0271 242.832 47.3787 246.768 47.4434C248.073 47.4649 248.47 48.5904 248.668 49.7116C250.7 61.2111 252.736 72.71 254.76 84.211C255.939 90.9114 257.119 97.6118 258.255 104.32C258.634 106.555 258.236 106.961 255.946 107.033C255.587 107.044 255.227 107.04 254.868 107.033C248.708 106.901 249.334 108.129 248.03 101.063C247.09 95.9643 247.619 96.7544 243.059 96.6919C241.12 96.6653 239.171 96.7944 237.242 96.6485C235.273 96.4995 234.547 97.3503 234.396 99.2065C234.246 101.059 233.812 102.886 233.579 104.734C233.383 106.284 232.582 107.038 231.016 107.016C229.436 106.994 227.855 107.018 226.275 106.992C224.53 106.964 223.872 106.183 224.195 104.368C225.722 95.7653 227.142 87.1437 228.652 78.538C230.325 69.0124 232.057 59.4973 233.752 49.9758C233.892 49.1904 234.005 48.4121 234.806 47.7446ZM240.136 65.9356C239.769 68.0556 239.404 70.1761 239.033 72.2954C238.253 76.7466 237.47 81.1972 236.686 85.6478C236.401 87.27 236.493 88.5264 238.719 88.3562C240.364 88.2305 242.027 88.2843 243.679 88.3412C245.352 88.3989 246.023 87.8813 245.653 86.0499C244.56 80.636 243.614 75.1927 242.603 69.7624C242.149 67.3254 241.96 64.8286 241.051 62.3227C240.343 63.435 240.525 64.5731 240.136 65.9356Z" fill="white"/>
<path d="M17.6892 86.7399C15.2714 83.55 12.3581 81.0964 9.3072 78.8098C2.84952 73.97 -0.327947 67.7134 0.180463 59.5083C0.718784 50.8205 5.80469 47.2115 12.8177 46.6969C21.2391 46.079 27.407 49.0694 29.2444 57.1343C29.7605 59.3994 29.4734 61.7098 29.4335 64.0003C29.4145 65.0937 28.738 65.7089 27.6741 65.8307C26.8915 65.9203 26.098 65.9418 25.3092 65.9454C19.5952 65.9716 19.5301 65.9708 19.6908 60.6902C19.7999 57.1041 18.0505 55.5681 14.745 55.6234C11.5429 55.6769 10.2089 57.2188 9.98045 60.7076C9.68567 65.21 12.0864 68.3 15.1146 71.1166C18.0591 73.8554 21.4452 76.0772 24.2323 79.0103C29.1485 84.1841 30.5354 90.3198 29.1625 97.1295C28.0397 102.699 24.5249 106.075 18.9328 107.155C15.3579 107.846 11.7448 107.802 8.26575 106.686C3.84313 105.268 1.2289 102.117 0.372336 97.5743C-0.0544106 95.3112 -0.0030814 93.004 0.00747295 90.7048C0.0150448 89.0568 0.616362 88.154 2.42452 88.1923C4.07289 88.2274 5.72474 88.0396 7.37612 88.0102C8.94235 87.9822 9.75773 88.709 9.72705 90.3718C9.69799 91.9463 9.68928 93.5406 9.89968 95.0954C10.225 97.4991 11.4051 98.506 13.7284 98.6771C17.0371 98.9208 18.7108 98.1048 19.4238 95.6752C20.3575 92.4939 19.4734 89.5901 17.6892 86.7399Z" fill="white"/>
<path d="M62.7182 50.9699C62.7124 56.1838 62.7124 56.1816 57.5997 56.1784C54.0068 56.1762 50.4127 56.2345 46.8215 56.1582C45.2047 56.1239 44.4659 56.5853 44.5119 58.3445C44.6134 62.2167 44.6233 66.095 44.5223 69.967C44.4748 71.7894 45.1934 72.3423 46.923 72.2978C50.1543 72.2146 53.3902 72.3305 56.6229 72.2782C58.429 72.249 59.2047 72.9829 59.2687 74.8171C59.4846 81.0147 59.5231 81.0278 53.2455 81.0205C51.0919 81.018 48.9374 80.9478 46.7851 80.8626C45.2979 80.8037 44.4966 81.3141 44.5154 82.9477C44.5648 87.2524 44.5653 91.5583 44.5203 95.863C44.5049 97.3361 45.1079 97.9662 46.5688 97.906C50.946 97.7255 55.317 98.4608 59.7028 97.9581C61.5531 97.7459 62.5594 98.5743 62.4103 100.583C62.3202 101.796 62.351 103.022 62.3892 104.24C62.4625 106.581 62.1298 106.997 59.7131 107.005C52.4555 107.029 45.1978 107.018 37.9401 107.001C35.1091 106.994 34.5979 106.492 34.5902 103.562C34.5685 95.239 34.5896 86.9155 34.5876 78.5919C34.5854 69.4791 34.5693 60.3663 34.5735 51.2535C34.5751 47.6422 34.8949 47.3498 38.5034 47.3552C45.4018 47.3657 52.3002 47.3657 59.1985 47.3729C62.3907 47.3762 62.6458 47.6252 62.7182 50.9699Z" fill="white"/>
<path d="M315.18 67.712C315.183 79.7753 315.188 91.6231 315.185 103.471C315.184 106.676 314.843 106.998 311.555 107.014C310.26 107.02 308.966 107.006 307.672 107.018C306.075 107.033 305.314 106.31 305.322 104.662C305.355 97.0544 305.367 89.4467 305.341 81.8392C305.322 75.9584 305.223 70.0779 305.187 64.1971C305.177 62.4763 305.208 60.7517 305.314 59.0346C305.481 56.3378 305.304 56.1078 302.517 56.0765C300.792 56.0571 299.065 56.0544 297.34 56.0675C295.568 56.081 294.768 55.2604 294.684 53.4548C294.404 47.428 294.436 47.3536 300.52 47.3508C307.999 47.3474 315.477 47.3462 322.956 47.3592C325.738 47.3641 325.981 47.587 325.968 50.2581C325.941 55.9343 326.891 56.2472 320.162 56.1363C314.387 56.041 315.233 55.7584 315.181 61.0342C315.16 63.1881 315.179 65.3424 315.18 67.712Z" fill="white"/>
<path d="M205.934 97.8768C209.949 97.8773 213.758 97.9492 217.563 97.8513C219.565 97.7998 220.503 98.5736 220.541 100.568C220.679 107.831 220.461 107.014 214.571 107.015C208.393 107.016 202.215 107.027 196.037 107.011C193.324 107.003 192.853 106.547 192.848 103.908C192.825 93.506 192.822 83.1041 192.816 72.7021C192.815 71.9156 192.725 71.0804 193.261 70.4238C196.013 67.0493 198.701 63.6152 201.975 60.5855C202.848 61.2645 202.61 62.0853 202.611 62.8203C202.616 65.1157 202.676 67.415 202.565 69.7055C202.468 71.7006 203.322 72.3694 205.251 72.3069C208.337 72.2069 211.429 72.3417 214.517 72.2704C216.464 72.2254 217.311 73.0648 217.197 74.9736C217.163 75.5454 217.196 76.1211 217.195 76.6949C217.193 80.7619 216.963 81.0149 212.773 81.0139C210.189 81.0133 207.601 80.9857 205.024 80.8296C203.249 80.7222 202.536 81.3802 202.565 83.1575C202.628 87.0303 202.58 90.9048 202.589 94.7786C202.597 97.8497 202.605 97.8497 205.934 97.8768Z" fill="white"/>
<path d="M163.012 87.8041C160.88 90.5654 159.043 93.3704 156.773 95.755C155.578 95.1521 155.798 94.2823 155.797 93.5407C155.771 79.1076 155.776 64.6745 155.731 50.2415C155.725 48.265 156.455 47.276 158.524 47.3877C159.886 47.4613 161.256 47.3858 162.622 47.4015C165.07 47.4295 165.445 47.8049 165.451 50.3398C165.467 56.6587 165.524 62.9786 165.429 69.2961C165.398 71.3505 166.07 72.1885 168.159 71.9963C169.584 71.8651 171.037 71.9204 172.469 72.0143C173.868 72.1059 174.271 72.8624 173.404 74.0214C172.028 75.8605 170.919 78.1774 169.089 79.3283C166.768 80.7882 165.419 82.3931 164.907 85.0324C164.72 85.9943 163.727 86.8003 163.012 87.8041Z" fill="white"/>
<path d="M186.983 94.4262C186.982 97.866 186.947 101.091 186.996 104.315C187.024 106.219 186.19 107.096 184.276 107.025C182.843 106.971 181.405 106.971 179.971 107.009C178.119 107.057 177.191 106.325 177.218 104.348C177.278 99.8344 177.234 95.3196 177.213 90.8056C177.208 89.8401 177.378 88.9558 178.028 88.2081C180.52 85.3428 183.006 82.4723 185.514 79.6216C185.729 79.3778 186.093 79.2658 186.984 78.7429C186.984 84.1796 186.984 89.1952 186.983 94.4262Z" fill="white"/>
<path d="M177.193 67.4232C177.099 61.7635 177.016 56.2496 176.991 50.7356C176.978 47.8179 177.414 47.4305 180.378 47.4114C187.632 47.3647 186.949 46.8226 186.983 53.9829C186.989 55.2492 186.765 56.3737 185.995 57.4053C183.637 60.5616 181.332 63.7583 178.943 66.8906C178.588 67.3555 178.265 68.5491 177.193 67.4232Z" fill="white"/>
<path d="M209.946 51.5374C210.552 50.8207 211.142 50.2748 211.564 49.6206C213.456 46.6849 216.372 47.2467 219.101 47.4959C220.55 47.6283 220.759 49.0311 220.577 50.1798C220.265 52.1474 221.869 55.2509 219.215 55.8518C215.253 56.7492 211.044 56.2314 206.735 55.9947C207.28 53.8778 208.954 53.0464 209.946 51.5374Z" fill="white"/>
</svg>
